<svg width="45" height="44" viewBox="0 0 45 44" fill="none" xmlns="http://www.w3.org/2000/svg">
<rect x="0.666748" width="44" height="44" rx="8" fill="#0068BC"/>
<path d="M22.6667 17.625C21.8015 17.625 20.9556 17.8816 20.2361 18.3623C19.5167 18.8431 18.9559 19.5263 18.6248 20.3258C18.2936 21.1252 18.207 22.0049 18.3758 22.8535C18.5446 23.7022 18.9613 24.4817 19.5732 25.0936C20.185 25.7054 20.9646 26.1221 21.8132 26.2909C22.6619 26.4597 23.5416 26.3731 24.341 26.042C25.1404 25.7108 25.8237 25.1501 26.3044 24.4306C26.7852 23.7112 27.0417 22.8653 27.0417 22C27.0417 20.8397 26.5808 19.7269 25.7603 18.9064C24.9399 18.0859 23.8271 17.625 22.6667 17.625ZM22.6667 24.625C22.1476 24.625 21.6401 24.471 21.2084 24.1826C20.7767 23.8942 20.4402 23.4842 20.2416 23.0045C20.0429 22.5249 19.9909 21.9971 20.0922 21.4879C20.1935 20.9787 20.4435 20.511 20.8106 20.1438C21.1777 19.7767 21.6454 19.5267 22.1546 19.4254C22.6638 19.3242 23.1916 19.3761 23.6713 19.5748C24.1509 19.7735 24.5609 20.1099 24.8494 20.5416C25.1378 20.9733 25.2917 21.4808 25.2917 22C25.2917 22.6962 25.0152 23.3639 24.5229 23.8562C24.0306 24.3484 23.3629 24.625 22.6667 24.625ZM34.9167 14.125H10.4167C10.1847 14.125 9.96212 14.2172 9.79803 14.3813C9.63394 14.5454 9.54175 14.7679 9.54175 15V29C9.54175 29.2321 9.63394 29.4546 9.79803 29.6187C9.96212 29.7828 10.1847 29.875 10.4167 29.875H34.9167C35.1488 29.875 35.3714 29.7828 35.5355 29.6187C35.6996 29.4546 35.7917 29.2321 35.7917 29V15C35.7917 14.7679 35.6996 14.5454 35.5355 14.3813C35.3714 14.2172 35.1488 14.125 34.9167 14.125ZM29.8472 28.125H15.4863C15.1925 27.1314 14.6548 26.2272 13.9222 25.4945C13.1896 24.7619 12.2853 24.2242 11.2917 23.9305V20.0695C12.2853 19.7758 13.1896 19.2381 13.9222 18.5055C14.6548 17.7728 15.1925 16.8686 15.4863 15.875H29.8472C30.141 16.8686 30.6787 17.7728 31.4113 18.5055C32.1439 19.2381 33.0482 19.7758 34.0417 20.0695V23.9305C33.0482 24.2242 32.1439 24.7619 31.4113 25.4945C30.6787 26.2272 30.141 27.1314 29.8472 28.125ZM34.0417 18.2123C32.9922 17.7611 32.1557 16.9245 31.7044 15.875H34.0417V18.2123ZM13.6291 15.875C13.1778 16.9245 12.3413 17.7611 11.2917 18.2123V15.875H13.6291ZM11.2917 25.7877C12.3413 26.2389 13.1778 27.0755 13.6291 28.125H11.2917V25.7877ZM31.7044 28.125C32.1557 27.0755 32.9922 26.2389 34.0417 25.7877V28.125H31.7044Z" fill="white"/>
</svg>
