<svg width="44" height="44" viewBox="0 0 44 44" fill="none" xmlns="http://www.w3.org/2000/svg">
<rect width="44" height="44" rx="8" fill="#402B9C"/>
<path d="M22 17.625C21.1347 17.625 20.2888 17.8816 19.5694 18.3623C18.8499 18.8431 18.2892 19.5263 17.958 20.3258C17.6269 21.1252 17.5403 22.0049 17.7091 22.8535C17.8779 23.7022 18.2946 24.4817 18.9064 25.0936C19.5183 25.7054 20.2978 26.1221 21.1465 26.2909C21.9951 26.4597 22.8748 26.3731 23.6742 26.042C24.4737 25.7108 25.1569 25.1501 25.6377 24.4306C26.1184 23.7112 26.375 22.8653 26.375 22C26.375 20.8397 25.9141 19.7269 25.0936 18.9064C24.2731 18.0859 23.1603 17.625 22 17.625ZM22 24.625C21.4808 24.625 20.9733 24.471 20.5416 24.1826C20.1099 23.8942 19.7735 23.4842 19.5748 23.0045C19.3761 22.5249 19.3242 21.9971 19.4254 21.4879C19.5267 20.9787 19.7767 20.511 20.1438 20.1438C20.511 19.7767 20.9787 19.5267 21.4879 19.4254C21.9971 19.3242 22.5249 19.3761 23.0045 19.5748C23.4842 19.7735 23.8942 20.1099 24.1826 20.5416C24.471 20.9733 24.625 21.4808 24.625 22C24.625 22.6962 24.3484 23.3639 23.8562 23.8562C23.3639 24.3484 22.6962 24.625 22 24.625ZM34.25 14.125H9.75C9.51794 14.125 9.29538 14.2172 9.13128 14.3813C8.96719 14.5454 8.875 14.7679 8.875 15V29C8.875 29.2321 8.96719 29.4546 9.13128 29.6187C9.29538 29.7828 9.51794 29.875 9.75 29.875H34.25C34.4821 29.875 34.7046 29.7828 34.8687 29.6187C35.0328 29.4546 35.125 29.2321 35.125 29V15C35.125 14.7679 35.0328 14.5454 34.8687 14.3813C34.7046 14.2172 34.4821 14.125 34.25 14.125ZM29.1805 28.125H14.8195C14.5258 27.1314 13.9881 26.2272 13.2555 25.4945C12.5228 24.7619 11.6186 24.2242 10.625 23.9305V20.0695C11.6186 19.7758 12.5228 19.2381 13.2555 18.5055C13.9881 17.7728 14.5258 16.8686 14.8195 15.875H29.1805C29.4742 16.8686 30.0119 17.7728 30.7445 18.5055C31.4772 19.2381 32.3814 19.7758 33.375 20.0695V23.9305C32.3814 24.2242 31.4772 24.7619 30.7445 25.4945C30.0119 26.2272 29.4742 27.1314 29.1805 28.125ZM33.375 18.2123C32.3255 17.7611 31.4889 16.9245 31.0377 15.875H33.375V18.2123ZM12.9623 15.875C12.5111 16.9245 11.6745 17.7611 10.625 18.2123V15.875H12.9623ZM10.625 25.7877C11.6745 26.2389 12.5111 27.0755 12.9623 28.125H10.625V25.7877ZM31.0377 28.125C31.4889 27.0755 32.3255 26.2389 33.375 25.7877V28.125H31.0377Z" fill="white"/>
</svg>
